<svg xmlns="http://www.w3.org/2000/svg" width="200" height="76" fill="none"><g fill="#000"><path d="M27.52 74.5H25.8C3.208 74.5 0 64.043 0 57.165V55.77c0-6.972 2.975-17.15 25.8-17.15h1.72c22.081 0 25.01 9.574 25.056 14.361v.65H36.538c-.232-.836-1.208-4.786-10.087-4.786-8.6 0-10.274 3.81-10.274 7.203v.558c0 3.3 1.86 7.576 10.32 7.576 9.065 0 9.902-4.323 10.041-5.113h16.038v.976c0 4.741-3.021 14.454-25.056 14.454ZM90.369 61.163h-19.85v12.688H54.853V39.273H70.52v11.805h19.85V39.273h15.712v34.578H90.369V61.163ZM143.316 69.062h-18.455l-2.139 4.787h-15.851l16.642-34.578h21.662l17.712 34.578h-17.386l-2.185-4.787Zm-4.416-9.527-4.928-10.643-4.834 10.643h9.762ZM153.018 39.273h45.557v10.83h-14.923V73.85H167.94V50.102h-14.922V39.273ZM25.63 36.88h-1.162C5.315 36.88.806 27.12.806 19.496v-1.394C.806 9.923 5.548 1 26.466 1h1.628c23.01 0 25.614 8.598 25.66 13.524v.047h-16.13c-.28-.837-1.395-3.765-9.995-3.765-7.95 0-10.646 3.393-10.646 7.762v.418c0 4.369 2.836 8.226 10.506 8.226 7.903 0 10.088-2.649 10.088-3.625H27.025v-6.925h26.962v19.566H43.713c-.232-1.069-1.116-3.113-1.906-4.136-1.208 1.209-5.392 4.787-16.177 4.787ZM114.93 36.88h-1.162c-19.153 0-23.662-9.76-23.662-17.383v-1.394C90.106 9.923 94.848 1 115.766 1h1.627c23.011 0 25.615 8.598 25.661 13.524v.047h-16.131c-.279-.837-1.394-3.765-9.994-3.765-7.95 0-10.646 3.393-10.646 7.762v.418c0 4.369 2.836 8.226 10.506 8.226 7.903 0 10.088-2.649 10.088-3.625h-10.553v-6.925h26.962v19.566h-10.273c-.233-1.069-1.116-3.113-1.906-4.136-1.209 1.209-5.392 4.787-16.177 4.787ZM180.429 31.441h-18.455l-2.138 4.787h-15.852L160.626 1.65h21.663L200 36.228h-17.386l-2.185-4.787Zm-4.416-9.527-4.928-10.643-4.834 10.643h9.762ZM88 11.69V1.639H56.277v10.05h8.052v14.488h-8.052v10.051H88V26.177h-8.052V11.69H88Z"/></g></svg>